<?xml version="1.0" encoding="utf-8"?>
<!-- Generator: Adobe Illustrator 22.0.0, SVG Export Plug-In . SVG Version: 6.00 Build 0)  -->
<svg version="1.1" id="ICON" xmlns="http://www.w3.org/2000/svg" xmlns:xlink="http://www.w3.org/1999/xlink" x="0px" y="0px"
	 viewBox="0 0 22.6 30.9" style="enable-background:new 0 0 22.6 30.9;" xml:space="preserve">
<style type="text/css">
	.st0{fill:#FFFFFF;}
</style>
<path class="st0" d="M11.4,17.6c3.8,1,8-0.6,10.1-4.2c2.4-4.3,0.9-9.8-3.4-12.2S8.3,0.3,5.9,4.5c-2,3.6-1.3,8.1,1.6,10.8l-1.2,2.1
	l-3.9-2.2l-2.2,3.9l3.9,2.2L0,28.6l3.9,2.2L8,23.6l3.9,2.2l2.2-3.9l-3.9-2.2L11.4,17.6z M9.8,6.8c1.2-2.1,3.9-2.9,6-1.7
	s2.9,3.9,1.7,6c-1.2,2.1-3.9,2.9-6,1.7S8.6,8.9,9.8,6.8z"/>
</svg>
